<svg xmlns="http://www.w3.org/2000/svg" viewBox="0 0 24 24" fill="#FFFFFF">
  <path d="M16.365 1.43c0 1.14-.417 2.064-1.249 2.772-.895.768-1.962 1.152-3.201 1.01-.08-1.09.39-2.04 1.265-2.73.875-.69 1.962-1.07 3.185-1.052zM20.64 17.13c-.57 1.31-.845 1.89-1.585 3.045-1.03 1.59-2.48 3.57-4.28 3.59-1.6.02-2.02-1.04-4.2-1.04-2.18 0-2.64 1.06-4.22 1.06-1.79.02-3.29-1.83-4.32-3.42-2.96-4.56-3.28-9.91-1.45-12.76 1.28-2.02 3.3-3.21 5.23-3.21 2.04 0 3.32 1.04 4.99 1.04 1.61 0 2.59-1.04 4.91-1.04 1.76 0 3.62.95 4.9 2.59-4.31 2.35-3.62 8.46.76 10.06z"/>
</svg>
